<svg width="22" height="22" fill="none" xmlns="http://www.w3.org/2000/svg"><g clip-path="url(#clip0_13_12)"><path d="M1.667 13.358c.644 0 1.166.523 1.166 1.167v2.414c0 1.23.998 2.228 2.228 2.228h2.566a1.167 1.167 0 110 2.333H5.06A4.56 4.56 0 01.5 16.94v-2.415c0-.644.522-1.167 1.167-1.167zm18.666-.046c.645 0 1.167.522 1.167 1.167v2.46a4.56 4.56 0 01-4.56 4.561h-2.448a1.167 1.167 0 010-2.333h2.447c1.23 0 2.228-.998 2.228-2.228v-2.46c0-.645.522-1.167 1.166-1.167zm-3.394 1.082a.849.849 0 010 1.697H5.061a.849.849 0 010-1.697h11.878zm0-4.242a.849.849 0 010 1.697H5.061a.849.849 0 010-1.697h11.878zm0-9.652A4.56 4.56 0 0121.5 5.06v3.448a1.167 1.167 0 11-2.333 0V5.06c0-1.23-.998-2.228-2.228-2.228h-2.536a1.167 1.167 0 010-2.333h2.536zM7.601.5a1.167 1.167 0 110 2.333H5.06c-1.23 0-2.228.998-2.228 2.228v2.613a1.167 1.167 0 11-2.333 0V5.061A4.56 4.56 0 015.06.5H7.6zm9.338 5.41a.849.849 0 010 1.696H5.061a.848.848 0 110-1.697h11.878z" fill="#fff"/></g><defs><clipPath id="clip0_13_12"><path fill="#fff" d="M0 0h22v22H0z"/></clipPath></defs></svg>